<svg width="0" height="0" class="hidden">
  <symbol fill="none" xmlns="http://www.w3.org/2000/svg" viewBox="0 0 10 16" id="telefon">
    <path d="M8.5 0H1.5C0.672848 0 0 0.672848 0 1.5V14.5C0 15.3272 0.672848 16 1.5 16H8.5C9.32715 16 10 15.3272 10 14.5V1.5C10 0.672848 9.32715 0 8.5 0ZM1.5 1H8.5C8.77588 1 9 1.22412 9 1.5V12H1V1.5C1 1.22412 1.22412 1 1.5 1ZM8.5 15H1.5C1.22412 15 1 14.7759 1 14.5V13H9V14.5C9 14.7759 8.77588 15 8.5 15Z" fill="#757575"></path>
  </symbol>
  <symbol version="1.1" xmlns="http://www.w3.org/2000/svg" viewBox="0 0 32 32" id="facebook">
    <title>facebook</title>
    <path d="M19 6h5v-6h-5c-3.86 0-7 3.14-7 7v3h-4v6h4v16h6v-16h5l1-6h-6v-3c0-0.542 0.458-1 1-1z"></path>
  </symbol>
  <symbol version="1.1" xmlns="http://www.w3.org/2000/svg" viewBox="0 0 32 32" id="linkedin">
    <title>linkedin</title>
    <path d="M29 0h-26c-1.65 0-3 1.35-3 3v26c0 1.65 1.35 3 3 3h26c1.65 0 3-1.35 3-3v-26c0-1.65-1.35-3-3-3zM12 26h-4v-14h4v14zM10 10c-1.106 0-2-0.894-2-2s0.894-2 2-2c1.106 0 2 0.894 2 2s-0.894 2-2 2zM26 26h-4v-8c0-1.106-0.894-2-2-2s-2 0.894-2 2v8h-4v-14h4v2.481c0.825-1.131 2.087-2.481 3.5-2.481 2.488 0 4.5 2.238 4.5 5v9z"></path>
  </symbol>
  <symbol fill="none" xmlns="http://www.w3.org/2000/svg" viewBox="0 0 106 60" id="Logo6">
    <path d="M53.425 27.408a2.947 2.947 0 0 1-.605-1.988v-2.884c0-.883.2-1.555.602-2.015.4-.46 1.089-.688 2.065-.686.917 0 1.569.196 1.953.587.42.499.625 1.109.578 1.724v.678h-1.64v-.687c.005-.224-.01-.449-.048-.671a.65.65 0 0 0-.235-.399.95.95 0 0 0-.594-.155 1.005 1.005 0 0 0-.625.164.768.768 0 0 0-.272.44 3.332 3.332 0 0 0-.065.713v3.499c-.026.337.047.675.21.982a.77.77 0 0 0 .328.238.9.9 0 0 0 .424.055.893.893 0 0 0 .58-.158.704.704 0 0 0 .245-.425c.038-.232.056-.467.051-.701v-.71h1.641v.648a2.64 2.64 0 0 1-.567 1.813c-.377.428-1.02.642-1.964.642s-1.658-.229-2.062-.704ZM60.257 27.438c-.415-.45-.622-1.103-.622-1.968v-3.033c0-.857.207-1.505.622-1.945.414-.44 1.107-.659 2.079-.657.965 0 1.654.22 2.069.657.414.44.625 1.088.625 1.945v3.032c0 .857-.21 1.514-.632 1.966-.421.451-1.107.677-2.062.677-.955 0-1.661-.229-2.08-.674Zm2.843-.728c.149-.28.216-.589.197-.897v-3.714a1.65 1.65 0 0 0-.193-.88.776.776 0 0 0-.335-.241.907.907 0 0 0-.433-.052.918.918 0 0 0-.434.052.786.786 0 0 0-.337.241c-.15.275-.217.578-.197.88v3.731c-.02.309.047.617.197.898.095.094.214.17.346.222a1.158 1.158 0 0 0 .843 0c.133-.052.25-.128.346-.222v-.018ZM67.004 19.924h1.766l1.328 5.595 1.36-5.595h1.718L73.35 28h-1.271l-.136-5.613L70.632 28h-1.02l-1.358-5.634L68.128 28h-1.284l.16-8.076ZM75.33 19.924h2.752c1.585 0 2.378.764 2.378 2.293 0 1.464-.835 2.196-2.504 2.194h-.937V28H75.32l.01-8.077Zm2.351 3.451c.168.019.338.006.5-.039.16-.044.31-.117.434-.216.195-.273.281-.593.245-.912a2.525 2.525 0 0 0-.082-.733.594.594 0 0 0-.125-.222.703.703 0 0 0-.214-.162 1.759 1.759 0 0 0-.758-.13h-.659v2.414h.66ZM82.91 19.924h1.824L86.606 28h-1.584l-.37-1.862h-1.627L82.645 28h-1.607l1.871-8.076Zm1.559 5.279-.636-3.39-.635 3.39h1.27ZM88.117 19.924h1.19l2.275 4.607v-4.607h1.41V28h-1.131l-2.29-4.81V28h-1.457l.003-8.076ZM96.294 24.92l-1.892-4.985h1.594l1.155 3.203 1.083-3.203h1.56l-1.869 4.986V28h-1.63v-3.08ZM56.048 31.532v.422h-1.386v3.282h-.581v-3.282h-1.393v-.422h3.36ZM60.393 35.236h-.449a.2.2 0 0 1-.126-.035.194.194 0 0 1-.074-.085l-.401-.88H57.42l-.4.88a.243.243 0 0 1-.062.1.208.208 0 0 1-.126.035h-.448l1.699-3.704h.59l1.72 3.69Zm-2.813-1.375h1.603l-.68-1.508a2.699 2.699 0 0 1-.125-.349c-.024.07-.044.138-.064.197l-.062.155-.672 1.505ZM63.321 34.872c.107.005.213.005.32 0 .091-.008.182-.023.271-.044.083-.017.165-.04.245-.067.075-.027.15-.059.227-.091v-.833h-.679a.137.137 0 0 1-.092-.03.086.086 0 0 1-.026-.03.074.074 0 0 1-.008-.037v-.284h1.318v1.42a2.578 2.578 0 0 1-.716.301c-.14.036-.281.061-.425.077-.165.016-.33.023-.496.023a2.59 2.59 0 0 1-.856-.138 2.09 2.09 0 0 1-.68-.387 1.79 1.79 0 0 1-.438-.587 1.851 1.851 0 0 1-.156-.768 1.92 1.92 0 0 1 .153-.774c.097-.22.247-.42.438-.587.194-.167.425-.297.68-.384.29-.095.6-.142.91-.138.158 0 .316.01.472.032.138.02.274.051.404.094.12.038.233.088.34.147.104.058.203.122.296.193l-.163.229a.142.142 0 0 1-.055.05.17.17 0 0 1-.078.02.222.222 0 0 1-.105-.029 2.113 2.113 0 0 1-.167-.088 1.504 1.504 0 0 0-.227-.1 2.127 2.127 0 0 0-.313-.082 2.614 2.614 0 0 0-.431-.032 2.009 2.009 0 0 0-.656.103c-.189.065-.36.165-.5.293a1.29 1.29 0 0 0-.315.46 1.732 1.732 0 0 0 0 1.235c.074.175.19.333.34.467.139.127.308.227.495.293.216.064.445.089.673.073ZM68.736 34.814h1.855v.422H68.17v-3.704h.58l-.013 3.282ZM72.52 35.236h-.58v-3.704h.58v3.704ZM74.681 31.55a.28.28 0 0 1 .089.067l2.483 2.792a.881.881 0 0 1 0-.132V31.517h.506v3.72h-.292a.275.275 0 0 1-.126-.021.328.328 0 0 1-.091-.07l-2.48-2.79v2.88h-.486v-3.704h.302c.033 0 .066.006.095.017ZM82.036 31.532v.407h-2.058v1.223h1.668v.393h-1.668v1.264h2.058v.408H79.38v-3.695h2.656ZM21.162 8.656l25.795 6.323v22.158l-25.795-6.32V8.655Zm-1.655-1.89v25.127l29.1 7.136V13.905l-29.1-7.138Z" fill="#AFB1B8"></path>
    <path d="M35.104 50.692 6 43.55V18.427l29.104 7.139v25.126Z" fill="#AFB1B8"></path>
    <path d="m19.99 8.371 25.458 6.244-10.827 9.35L9.16 17.718 19.99 8.37Zm-.483-1.604L6 18.427l29.104 7.14 13.504-11.662-29.1-7.138ZM36.741 49.279 48.608 39.03 36.74 36.12v13.16Z" fill="#AFB1B8"></path>
  </symbol>
  <symbol fill="none" xmlns="http://www.w3.org/2000/svg" viewBox="0 0 70 54" id="comp">
    <path d="M3.49817 53.8865H59.4689C61.4007 53.8865 62.967 52.3202 62.967 50.3883V45.7241C62.967 43.7922 61.4007 42.2259 59.4689 42.2259H58.3028V13.1468L64.9262 6.87244C66.4635 7.63026 68.3242 7.17021 69.3302 5.78154C70.3369 4.39343 70.1957 2.48208 68.9966 1.25681C67.7975 0.0315355 65.8901 -0.15123 64.4798 0.824089C63.0701 1.79998 62.569 3.64984 63.2933 5.20363L58.3028 9.93447V7.24423C58.3028 5.31238 56.7365 3.74606 54.8046 3.74606H8.16239C6.23054 3.74606 4.66422 5.31238 4.66422 7.24423V42.2259H3.49817C1.56632 42.2259 0 43.7922 0 45.7241V50.3883C0 52.3202 1.56632 53.8865 3.49817 53.8865ZM66.4652 2.58001C67.1091 2.58001 67.6312 3.10211 67.6312 3.74606C67.6312 4.39001 67.1091 4.91212 66.4652 4.91212C65.8212 4.91212 65.2991 4.39001 65.2991 3.74606C65.2991 3.10211 65.8212 2.58001 66.4652 2.58001ZM6.99634 7.24423C6.99634 6.60028 7.51844 6.07817 8.16239 6.07817H54.8046C55.4486 6.07817 55.9707 6.60028 55.9707 7.24423V12.1413L53.6386 14.3573V9.57634C53.6386 8.93239 53.1165 8.41029 52.4725 8.41029H10.4945C9.85055 8.41029 9.32845 8.93239 9.32845 9.57634V38.7277C9.32845 39.3717 9.85055 39.8938 10.4945 39.8938H52.4725C53.1165 39.8938 53.6386 39.3717 53.6386 38.7277V17.5651L55.9707 15.3554V42.2259H6.99634V7.24423ZM17.4908 22.403C15.9131 22.3984 14.5279 23.4495 14.1083 24.9702C13.6886 26.491 14.3383 28.104 15.6951 28.9091C17.0513 29.7142 18.7793 29.512 19.9129 28.4149L23.9662 30.4486C24.4371 30.6844 25.0081 30.5739 25.3583 30.1805L33.9745 20.4871L42.4443 26.8337C42.8987 27.1742 43.5329 27.1378 43.9452 26.7478L51.3065 19.7748V37.5617H11.6606V10.7424H51.3065V16.5619L43.0564 24.3747L34.5154 17.9716C34.0303 17.6084 33.3476 17.6767 32.9445 18.1293L24.2099 27.9571L20.9446 26.3242C20.9685 26.1841 20.9833 26.0429 20.989 25.9011C20.989 23.9693 19.4227 22.403 17.4908 22.403ZM18.6569 25.9011C18.6569 26.5451 18.1348 27.0672 17.4908 27.0672C16.8469 27.0672 16.3248 26.5451 16.3248 25.9011C16.3248 25.2572 16.8469 24.7351 17.4908 24.7351C18.1348 24.7351 18.6569 25.2572 18.6569 25.9011ZM25.6532 44.558H37.3138V45.7241C37.3138 46.368 36.7917 46.8901 36.1477 46.8901H26.8193C26.1753 46.8901 25.6532 46.368 25.6532 45.7241V44.558ZM2.33211 45.7241C2.33211 45.0801 2.85422 44.558 3.49817 44.558H23.3211V45.7241C23.3211 47.6559 24.8874 49.2223 26.8193 49.2223H36.1477C38.0796 49.2223 39.6459 47.6559 39.6459 45.7241V44.558H59.4689C60.1128 44.558 60.6349 45.0801 60.6349 45.7241V50.3883C60.6349 51.0323 60.1128 51.5544 59.4689 51.5544H3.49817C2.85422 51.5544 2.33211 51.0323 2.33211 50.3883V45.7241Z" fill="#212121"></path>
  </symbol>
  <symbol version="1.1" xmlns="http://www.w3.org/2000/svg" viewBox="0 0 32 32" id="twitter">
    <title>twitter</title>
    <path d="M32 7.075c-1.175 0.525-2.444 0.875-3.769 1.031 1.356-0.813 2.394-2.1 2.887-3.631-1.269 0.75-2.675 1.3-4.169 1.594-1.2-1.275-2.906-2.069-4.794-2.069-3.625 0-6.563 2.938-6.563 6.563 0 0.512 0.056 1.012 0.169 1.494-5.456-0.275-10.294-2.888-13.531-6.862-0.563 0.969-0.887 2.1-0.887 3.3 0 2.275 1.156 4.287 2.919 5.463-1.075-0.031-2.087-0.331-2.975-0.819 0 0.025 0 0.056 0 0.081 0 3.181 2.263 5.838 5.269 6.437-0.55 0.15-1.131 0.231-1.731 0.231-0.425 0-0.831-0.044-1.237-0.119 0.838 2.606 3.263 4.506 6.131 4.563-2.25 1.762-5.075 2.813-8.156 2.813-0.531 0-1.050-0.031-1.569-0.094 2.913 1.869 6.362 2.95 10.069 2.95 12.075 0 18.681-10.006 18.681-18.681 0-0.287-0.006-0.569-0.019-0.85 1.281-0.919 2.394-2.075 3.275-3.394z"></path>
  </symbol>
  <symbol fill="none" xmlns="http://www.w3.org/2000/svg" viewBox="0 0 106 61" id="Logo1">
    <path fill-rule="evenodd" clip-rule="evenodd" d="m38 7.713 7.008 6.634L32 14.34v32.187h34V34.22l7 6.627V7.713H38Zm27.692 25.728-19.87-18.81h19.87v18.81Zm-6.169 8.378H37.38V20.17h1.565v20.182h20.578v1.466ZM42.61 50.812l-.818 1.685-.818-1.685h-.686l1.194 2.246v1.309h.62v-1.309l1.191-2.246h-.683Zm1.028 3.555.288-.828h1.377l.29.828h.645l-1.345-3.555h-.555l-1.342 3.555h.642Zm.976-2.8.515 1.474h-1.03l.515-1.474Zm3.257 1.389a.808.808 0 0 0-.134.451c0 .3.105.543.315.73.211.186.493.279.844.279.352 0 .655-.095.909-.286l.2.237h.688l-.522-.618c.205-.28.307-.639.307-1.076h-.515c0 .239-.05.456-.149.651l-.686-.81.242-.176a1.34 1.34 0 0 0 .369-.371.785.785 0 0 0 .112-.41.732.732 0 0 0-.249-.564.895.895 0 0 0-.635-.23c-.286 0-.514.082-.683.245-.17.16-.254.38-.254.659 0 .114.027.232.08.354.056.122.153.27.29.444-.263.189-.44.352-.529.49Zm1.604.786a.905.905 0 0 1-.561.2.584.584 0 0 1-.425-.154.533.533 0 0 1-.159-.4c0-.19.098-.36.293-.508l.076-.054.776.916Zm-.637-1.575c-.168-.206-.252-.378-.252-.515 0-.119.035-.217.103-.295a.348.348 0 0 1 .276-.117.37.37 0 0 1 .266.1c.07.065.105.144.105.236a.44.44 0 0 1-.151.345l-.076.06-.271.186Zm5.786 1.931c.244-.213.384-.51.42-.888h-.615c-.033.254-.11.435-.232.544-.122.11-.305.164-.547.164-.265 0-.467-.101-.605-.303-.137-.202-.206-.495-.206-.879v-.315c.004-.38.077-.666.22-.862.145-.197.352-.295.62-.295.231 0 .406.057.525.17.12.113.195.297.225.553h.615c-.04-.39-.178-.69-.417-.904-.24-.213-.555-.32-.948-.32-.291 0-.548.07-.771.208a1.346 1.346 0 0 0-.51.59 2.08 2.08 0 0 0-.179.887v.332c.005.327.066.614.183.862.118.247.284.438.498.574.217.133.467.2.75.2.405 0 .73-.106.974-.318Zm3.63-.498c.12-.263.181-.57.181-.918v-.197a2.148 2.148 0 0 0-.185-.911 1.355 1.355 0 0 0-.52-.6c-.224-.14-.48-.21-.77-.21-.29 0-.546.07-.771.212-.223.14-.396.342-.52.608a2.174 2.174 0 0 0-.183.918v.2c.002.34.063.64.185.9.124.261.298.462.523.604.226.14.483.21.771.21.292 0 .549-.07.772-.21.224-.142.397-.344.517-.606Zm-.661-2.009c.15.21.224.512.224.906v.185c0 .4-.074.705-.222.913-.146.209-.356.313-.63.313a.738.738 0 0 1-.634-.32c-.152-.213-.227-.515-.227-.906v-.205c.003-.382.08-.678.229-.886a.73.73 0 0 1 .627-.315c.274 0 .485.105.633.315Z" fill="#AFB1B8"></path>
  </symbol>
  <symbol fill="none" xmlns="http://www.w3.org/2000/svg" viewBox="0 0 106 61" id="Logo2">
    <path fill-rule="evenodd" clip-rule="evenodd" d="M50.114 6.648h-.137c-.21-.013-.42-.018-.63-.023h-.455c-.397 0-.802.01-1.204.03a.628.628 0 0 0-.091 0A28.275 28.275 0 0 0 37.08 9.338l-.432.209v22.14l1.012-.343c.888-.305 1.834-.58 2.813-.834a34.334 34.334 0 0 1 8.095-1.075v2.909a24.28 24.28 0 0 0-1.065.03h-.084a32.36 32.36 0 0 0-6.228.956 31.635 31.635 0 0 0-7.42 2.892V7.825a29.727 29.727 0 0 1 7.785-3.166 29.793 29.793 0 0 1 7.336-.946h.427c.511.013 1.01.036 1.478.071a21.09 21.09 0 0 1 3.655.583V7.23a22.624 22.624 0 0 0-3.614-.54c-.247-.021-.494-.042-.724-.042Zm5.039 2.927c.635.048 1.293.07 1.958.07a31.467 31.467 0 0 0 7.713-.988 31.777 31.777 0 0 0 7.417-2.894v27.89a29.815 29.815 0 0 1-7.786 3.166 29.943 29.943 0 0 1-7.337.944 22.405 22.405 0 0 1-5.565-.656V9.035c.43.1.873.191 1.323.267a24.85 24.85 0 0 0 2.277.273Zm14.194.216-1.012.34a44.54 44.54 0 0 1-2.813.842 34.263 34.263 0 0 1-8.406 1.078c-.66 0-1.267-.018-1.854-.056l-.807-.053V34.719l.693.06c.642.057 1.305.085 1.973.085a26.888 26.888 0 0 0 6.62-.857 27.764 27.764 0 0 0 5.174-1.86l.432-.208V9.791Z" fill="#AFB1B8"></path>
    <path d="M35.737 45.925a1.492 1.492 0 0 0-1.126-.455 1.676 1.676 0 0 0-.65.122 1.464 1.464 0 0 0-.832.842c-.08.2-.119.413-.116.628v3.794a1.79 1.79 0 0 0 .149.778c.09.195.219.368.38.509.151.128.329.22.52.27.185.051.376.078.567.078.211.002.42-.043.612-.132a1.601 1.601 0 0 0 .96-1.465v-.424h-.993v.338a.88.88 0 0 1-.058.338.607.607 0 0 1-.144.214.697.697 0 0 1-.415.145.504.504 0 0 1-.465-.204.898.898 0 0 1-.132-.508v-3.538c-.006-.196.036-.39.122-.567a.507.507 0 0 1 .485-.229.527.527 0 0 1 .443.214.806.806 0 0 1 .164.509v.328h.982v-.387a1.79 1.79 0 0 0-.121-.663 1.563 1.563 0 0 0-.332-.535ZM41.629 45.882a1.765 1.765 0 0 0-1.128-.417c-.202.001-.403.037-.592.107a1.56 1.56 0 0 0-.908.842c-.1.231-.15.482-.145.735v3.639c-.007.256.043.51.145.745.09.195.22.369.384.508.152.14.33.25.524.32a1.711 1.711 0 0 0 1.72-.32c.158-.142.285-.315.374-.508.102-.235.151-.49.145-.745v-3.64a1.77 1.77 0 0 0-.145-.734 1.641 1.641 0 0 0-.374-.532Zm-.463 4.906a.656.656 0 0 1-.197.526.726.726 0 0 1-.934 0 .65.65 0 0 1-.197-.526v-3.64a.653.653 0 0 1 .197-.526.726.726 0 0 1 .934 0 .653.653 0 0 1 .197.527v3.639ZM49.367 52.413v-6.89h-.953L47.16 49.17h-.017l-1.263-3.646h-.943v6.889h.984v-4.191h.018l.963 2.962h.491l.971-2.962h.018v4.19h.984ZM54.958 46.007c-.151-.17-.343-.3-.556-.377a2.184 2.184 0 0 0-.714-.106h-1.462v6.888h.982v-2.69h.505c.307.014.611-.05.886-.188a1.43 1.43 0 0 0 .539-.527c.113-.183.19-.387.225-.6.038-.259.056-.52.053-.783.01-.33-.023-.661-.096-.984a1.467 1.467 0 0 0-.362-.633Zm-.506 2.1a.866.866 0 0 1-.091.359.553.553 0 0 1-.253.241 1.007 1.007 0 0 1-.463.087h-.448v-2.342h.506a.941.941 0 0 1 .443.086.555.555 0 0 1 .23.255c.054.12.083.251.086.383v.458c0 .16.01.326 0 .473h-.01ZM59.608 45.524h-.805l-1.518 6.889h.982l.288-1.48h1.339l.288 1.48h.981l-1.555-6.89Zm-.906 4.47.483-2.497h.018l.48 2.497h-.981ZM65.95 49.674h-.018l-1.482-4.15h-.944v6.889h.981V48.27h.02l1.5 4.142h.924v-6.888h-.981v4.15ZM71.948 45.524l-.79 2.739h-.02l-.79-2.74H69.31l1.348 3.978v2.912h.982V49.5l1.348-3.977h-1.04ZM33 54.358h.473v1.327h.321v-1.327h.47v-.272H33v.272ZM36.977 54.086l-.62 1.6h.341l.132-.365h.638l.136.364h.35l-.636-1.6h-.341Zm-.05.966.217-.593.217.593h-.435ZM40.908 55.095h.37v.206a.612.612 0 0 1-.38.135.402.402 0 0 1-.34-.153.669.669 0 0 1-.118-.417c0-.356.154-.534.46-.534a.338.338 0 0 1 .362.255l.316-.061c-.068-.313-.293-.47-.678-.47a.804.804 0 0 0-.559.205.78.78 0 0 0-.23.616.872.872 0 0 0 .205.6.776.776 0 0 0 .607.234.961.961 0 0 0 .678-.255v-.63h-.693v.27ZM44.923 54.086h-.324v1.6h1.12v-.273h-.796v-1.327ZM48.318 54.086h-.324v1.6h.324v-1.6ZM51.636 55.154l-.655-1.068h-.313v1.6h.3V54.64l.643 1.045h.322v-1.6h-.297v1.069ZM54.637 54.98h.797v-.271h-.797v-.351h.857v-.272h-1.181v1.6h1.214v-.273h-.89v-.432ZM61.912 54.716h-.63v-.63h-.32v1.6h.32v-.7h.63v.7h.322v-1.6h-.322v.63ZM64.93 54.98h.8v-.271h-.8v-.351h.86v-.272H64.61v1.6h1.212v-.273h-.89v-.432ZM69.023 54.98c.279-.042.42-.19.42-.444a.383.383 0 0 0-.157-.356.905.905 0 0 0-.468-.094h-.678v1.6h.322v-.67h.063a.431.431 0 0 1 .2.036c.047.029.086.07.114.117l.349.509h.384l-.195-.313a1.115 1.115 0 0 0-.354-.384Zm-.324-.22h-.237v-.402h.253a.84.84 0 0 1 .326.038.208.208 0 0 1 .046.256.208.208 0 0 1-.061.07.913.913 0 0 1-.327.038ZM72.11 54.98h.796v-.271h-.796v-.351h.86v-.272h-1.184v1.6H73v-.273h-.89v-.432Z" fill="#AFB1B8"></path>
  </symbol>
</svg>